<svg xmlns="http://www.w3.org/2000/svg" height="24" viewBox="0 -960 960 960" width="24"><path d="M480-80q-83 0-156-31.5T197-197q-65-65-96.5-138T80-480q0-83 31.5-156T197-763q65-65 138-96.5T480-880q83 0 156 31.5T763-763q65 65 96.5 138T880-480q0 83-31.5 156T763-197q-65 65-138 96.5T480-80Zm0-80q117 0 198.5-81.5T760-480q0-117-81.5-198.5T480-760q-117 0-198.5 81.5T200-480q0 117 81.5 198.5T480-160Zm-40-120h80v-80h-80v80Zm0-160h80v-80h-80v80Zm0-160h80v-80h-80v80Zm-120 80h80v-80h-80v80Zm240 0h80v-80h-80v80Zm-120 80h80v-80h-80v80Zm-120 80h80v-80h-80v80Zm240 0h80v-80h-80v80Z"/></svg>